<svg xmlns="http://www.w3.org/2000/svg" width="512" height="512" style=""><rect id="backgroundrect" width="100%" height="100%" x="0" y="0" fill="none" stroke="none"/><!--! Font Awesome Pro 6.4.0 by @fontawesome - https://fontawesome.com License - https://fontawesome.com/license (Commercial License) Copyright 2023 Fonticons, Inc. --><g class="currentLayer" style=""><title>Layer 1</title><path d="M164.9,9.914686655998231 c-7.7,-18.6 -28,-28.5 -47.4,-23.2 l-88,24 C12.1,15.51468665599823 0,31.31468665599823 0,49.31468665599823 C0,296.7146866559982 200.6,497.31468665599823 448,497.31468665599823 c18,0 33.8,-12.1 38.6,-29.5 l24,-88 c5.3,-19.4 -4.6,-39.7 -23.2,-47.4 l-96,-40 c-16.3,-6.8 -35.2,-2.1 -46.3,11.6 L304.7,353.31468665599823 C234.3,320.0146866559982 177.3,263.0146866559982 144,192.61468665599824 L193.3,152.31468665599823 c13.7,-11.2 18.4,-30 11.6,-46.3 l-40,-96 z" id="svg_1" class="selected" fill="#0b0bd5" fill-opacity="1"/></g></svg>